<?xml version="1.0" encoding="utf-8"?>
<!-- Generator: Adobe Illustrator 17.1.0, SVG Export Plug-In . SVG Version: 6.00 Build 0)  -->
<!DOCTYPE svg PUBLIC "-//W3C//DTD SVG 1.1//EN" "http://www.w3.org/Graphics/SVG/1.1/DTD/svg11.dtd">
<svg version="1.1" id="Layer_1" xmlns="http://www.w3.org/2000/svg" xmlns:xlink="http://www.w3.org/1999/xlink" x="0px" y="0px"
	 viewBox="0 0 500 500" enable-background="new 0 0 500 500" xml:space="preserve">
<g>
	<g>
		<polygon fill="#C0202F" points="126.2,461.4 77.3,461.4 77.3,128.8 88.3,128.8 88.3,450.4 115.2,450.4 115.2,131.2 126.2,131.2 		
			"/>
	</g>
	<g>
		<polygon fill="#C0202F" points="126.2,91.6 115.2,91.6 115.2,65.5 88.3,65.5 88.3,90.8 77.3,90.8 77.3,54.5 126.2,54.5 		"/>
	</g>
	<g>
		<path fill="#C0202F" d="M441.1,135.7H45V86.7h396.1V135.7z M56.1,124.6h374V97.8h-374V124.6z"/>
	</g>
	<g>
		<path fill="#C0202F" d="M427.7,360.7H151.3V151.4h276.4V360.7z M162.3,349.7h254.4V162.4H162.3V349.7z"/>
	</g>
	<g>
		<path fill="#C0202F" d="M187.2,180.3c-3,0-5.5-2.5-5.5-5.5v-44.6c0-3,2.5-5.5,5.5-5.5s5.5,2.5,5.5,5.5v44.6
			C192.7,177.8,190.3,180.3,187.2,180.3z"/>
	</g>
	<g>
		<path fill="#C0202F" d="M386.2,180.3c-3,0-5.5-2.5-5.5-5.5v-44.6c0-3,2.5-5.5,5.5-5.5s5.5,2.5,5.5,5.5v44.6
			C391.8,177.8,389.3,180.3,386.2,180.3z"/>
	</g>
	<g>
		<rect x="203.8" y="221.3" fill="#C0202F" width="176.9" height="11"/>
	</g>
	<g>
		<rect x="203.8" y="254.5" fill="#C0202F" width="176.9" height="11"/>
	</g>
	<g>
		<rect x="203.8" y="287.6" fill="#C0202F" width="176.9" height="11"/>
	</g>
</g>
</svg>
