<?xml version="1.0" encoding="utf-8"?>
<!-- Generator: Adobe Illustrator 17.1.0, SVG Export Plug-In . SVG Version: 6.00 Build 0)  -->
<!DOCTYPE svg PUBLIC "-//W3C//DTD SVG 1.1//EN" "http://www.w3.org/Graphics/SVG/1.1/DTD/svg11.dtd">
<svg version="1.1" id="Layer_1" xmlns="http://www.w3.org/2000/svg" xmlns:xlink="http://www.w3.org/1999/xlink" x="0px" y="0px"
	 viewBox="0 0 500 500" enable-background="new 0 0 500 500" xml:space="preserve">
<g>
	<g>
		<path fill="#C0202F" d="M369.8,435.3H128.5c-11.9,0-21.5-9.7-21.5-21.5V95c0-11.9,9.7-21.5,21.5-21.5h241.3
			c11.9,0,21.5,9.7,21.5,21.5v318.7C391.3,425.6,381.7,435.3,369.8,435.3z M128.5,84.5c-5.8,0-10.5,4.7-10.5,10.5v318.7
			c0,5.8,4.7,10.5,10.5,10.5h241.3c5.8,0,10.5-4.7,10.5-10.5V95c0-5.8-4.7-10.5-10.5-10.5H128.5z"/>
	</g>
	<g>
		<path fill="#C0202F" d="M341.9,196.3H155.2c-11.9,0-21.5-9.7-21.5-21.5v-48.4c0-11.9,9.7-21.5,21.5-21.5h186.7
			c11.9,0,21.5,9.7,21.5,21.5v48.4C363.4,186.7,353.8,196.3,341.9,196.3z M155.2,115.9c-5.8,0-10.5,4.7-10.5,10.5v48.4
			c0,5.8,4.7,10.5,10.5,10.5h186.7c5.8,0,10.5-4.7,10.5-10.5v-48.4c0-5.8-4.7-10.5-10.5-10.5H155.2z"/>
	</g>
	<g>
		<path fill="#C0202F" d="M353.9,402.9h-42.1c-5.2,0-9.5-4.3-9.5-9.5v-96.7c0-5.2,4.3-9.5,9.5-9.5h42.1c5.2,0,9.5,4.3,9.5,9.5v96.7
			C363.4,398.6,359.2,402.9,353.9,402.9z M313.3,391.9h39.1v-93.6h-39.1V391.9z"/>
	</g>
	<g>
		<path fill="#C0202F" d="M354.4,274.4h-43.5c-4.7,0-8.5-3.8-8.5-8.5v-16.6c0-4.7,3.8-8.5,8.5-8.5h43.5c4.7,0,8.5,3.8,8.5,8.5v16.6
			C362.9,270.6,359.1,274.4,354.4,274.4z M312.2,264.6H353v-13.8h-40.8V264.6z"/>
	</g>
	<g>
		<path fill="#C0202F" d="M282.8,275.3h-27.5c-5,0-9-4-9-9v-15.6c0-5,4-9,9-9h27.5c5,0,9,4,9,9v15.6
			C291.8,271.3,287.8,275.3,282.8,275.3z M256.4,265.3h25.5v-13.6h-25.5V265.3z"/>
	</g>
	<g>
		<path fill="#C0202F" d="M227.3,275.3h-27.5c-5,0-9-4-9-9v-15.6c0-5,4-9,9-9h27.5c5,0,9,4,9,9v15.6
			C236.3,271.3,232.2,275.3,227.3,275.3z M200.8,265.3h25.5v-13.6h-25.5V265.3z"/>
	</g>
	<g>
		<path fill="#C0202F" d="M171.7,275.3h-27.5c-5,0-9-4-9-9v-15.6c0-5,4-9,9-9h27.5c5,0,9,4,9,9v15.6
			C180.7,271.3,176.6,275.3,171.7,275.3z M145.2,265.3h25.5v-13.6h-25.5V265.3z"/>
	</g>
	<g>
		<path fill="#C0202F" d="M282.8,317.8h-27.5c-5,0-9-4-9-9v-15.6c0-5,4-9,9-9h27.5c5,0,9,4,9,9v15.6
			C291.8,313.8,287.8,317.8,282.8,317.8z M256.4,307.8h25.5v-13.6h-25.5V307.8z"/>
	</g>
	<g>
		<path fill="#C0202F" d="M227.3,317.8h-27.5c-5,0-9-4-9-9v-15.6c0-5,4-9,9-9h27.5c5,0,9,4,9,9v15.6
			C236.3,313.8,232.2,317.8,227.3,317.8z M200.8,307.8h25.5v-13.6h-25.5V307.8z"/>
	</g>
	<g>
		<path fill="#C0202F" d="M171.7,317.8h-27.5c-5,0-9-4-9-9v-15.6c0-5,4-9,9-9h27.5c5,0,9,4,9,9v15.6
			C180.7,313.8,176.6,317.8,171.7,317.8z M145.2,307.8h25.5v-13.6h-25.5V307.8z"/>
	</g>
	<g>
		<path fill="#C0202F" d="M282.8,360.4h-27.5c-5,0-9-4-9-9v-15.6c0-5,4-9,9-9h27.5c5,0,9,4,9,9v15.6
			C291.8,356.3,287.8,360.4,282.8,360.4z M256.4,350.4h25.5v-13.6h-25.5V350.4z"/>
	</g>
	<g>
		<path fill="#C0202F" d="M227.3,360.4h-27.5c-5,0-9-4-9-9v-15.6c0-5,4-9,9-9h27.5c5,0,9,4,9,9v15.6
			C236.3,356.3,232.2,360.4,227.3,360.4z M200.8,350.4h25.5v-13.6h-25.5V350.4z"/>
	</g>
	<g>
		<path fill="#C0202F" d="M171.7,360.4h-27.5c-5,0-9-4-9-9v-15.6c0-5,4-9,9-9h27.5c5,0,9,4,9,9v15.6
			C180.7,356.3,176.6,360.4,171.7,360.4z M145.2,350.4h25.5v-13.6h-25.5V350.4z"/>
	</g>
	<g>
		<path fill="#C0202F" d="M282.8,402.9h-27.5c-5,0-9-4-9-9v-15.6c0-5,4-9,9-9h27.5c5,0,9,4,9,9v15.6
			C291.8,398.9,287.8,402.9,282.8,402.9z M256.4,392.9h25.5v-13.6h-25.5V392.9z"/>
	</g>
	<g>
		<path fill="#C0202F" d="M227.3,402.9h-27.5c-5,0-9-4-9-9v-15.6c0-5,4-9,9-9h27.5c5,0,9,4,9,9v15.6
			C236.3,398.9,232.2,402.9,227.3,402.9z M200.8,392.9h25.5v-13.6h-25.5V392.9z"/>
	</g>
	<g>
		<path fill="#C0202F" d="M171.7,402.9h-27.5c-5,0-9-4-9-9v-15.6c0-5,4-9,9-9h27.5c5,0,9,4,9,9v15.6
			C180.7,398.9,176.6,402.9,171.7,402.9z M145.2,392.9h25.5v-13.6h-25.5V392.9z"/>
	</g>
</g>
</svg>
