<?xml version="1.0" encoding="utf-8"?>
<!-- Generator: Adobe Illustrator 17.1.0, SVG Export Plug-In . SVG Version: 6.00 Build 0)  -->
<!DOCTYPE svg PUBLIC "-//W3C//DTD SVG 1.1//EN" "http://www.w3.org/Graphics/SVG/1.1/DTD/svg11.dtd">
<svg version="1.1" id="Layer_1" xmlns="http://www.w3.org/2000/svg" xmlns:xlink="http://www.w3.org/1999/xlink" x="0px" y="0px"
	 viewBox="0 0 500 500" enable-background="new 0 0 500 500" xml:space="preserve">
<g>
	<g>
		<path fill="#C0202F" d="M404.5,422.2h-313V206.3h313V422.2z M102.6,411.2h290.9V217.3H102.6V411.2z"/>
	</g>
	<g>
		<path fill="#C0202F" d="M349,422.2h-90.9V270.9H349V422.2z M269.2,411.2H338V281.9h-68.8V411.2z"/>
	</g>
	<g>
		<polygon fill="#C0202F" points="133.7,151.9 122.6,151.9 122.6,69.9 187.5,69.9 187.5,114.2 176.4,114.2 176.4,80.9 133.7,80.9 		
			"/>
	</g>
	<g>
		<path fill="#C0202F" d="M473.5,217.3h-451L248.1,66L473.5,217.3z M58.8,206.3h378.5l-189.2-127L58.8,206.3z"/>
	</g>
	<g>
		<path fill="#C0202F" d="M205.4,320.5h-55.9v-55.9h55.9V320.5z M160.6,309.5h33.8v-33.8h-33.8V309.5z"/>
	</g>
</g>
</svg>
