<?xml version="1.0" encoding="utf-8"?>
<!-- Generator: Adobe Illustrator 17.1.0, SVG Export Plug-In . SVG Version: 6.00 Build 0)  -->
<!DOCTYPE svg PUBLIC "-//W3C//DTD SVG 1.1//EN" "http://www.w3.org/Graphics/SVG/1.1/DTD/svg11.dtd">
<svg version="1.1" id="Layer_1" xmlns="http://www.w3.org/2000/svg" xmlns:xlink="http://www.w3.org/1999/xlink" x="0px" y="0px"
	 viewBox="0 0 50 50" enable-background="new 0 0 50 50" xml:space="preserve">
<path fill="#FFFFFF" d="M16.3,7.5c1.8-0.5,4.2,2.6,6,7.4c0.5,1.9-0.3,2.4-1.1,3.2s-3.4,2.3-3.4,3.5s1.2,3.9,3.3,6.4s6,5.9,7.4,5.7
	c1.3-0.2,3.1-2.5,4.1-3.3c1.1-0.8,2.5-1.1,4.8,0.6c2.3,1.7,5,4.3,4.8,5.6c-0.2,1.4-3.2,4.2-5.7,5s-5.7,2.3-11.9-1.5
	S12.2,28.8,10.5,24.3S9.1,14.6,11,12.1S14.7,7.9,16.3,7.5z"/>
</svg>
