<?xml version="1.0" encoding="utf-8"?>
<!-- Generator: Adobe Illustrator 17.1.0, SVG Export Plug-In . SVG Version: 6.00 Build 0)  -->
<!DOCTYPE svg PUBLIC "-//W3C//DTD SVG 1.1//EN" "http://www.w3.org/Graphics/SVG/1.1/DTD/svg11.dtd">
<svg version="1.1" id="Layer_1" xmlns="http://www.w3.org/2000/svg" xmlns:xlink="http://www.w3.org/1999/xlink" x="0px" y="0px"
	 viewBox="0 0 50 50" enable-background="new 0 0 50 50" xml:space="preserve">
<path id="LinkedIn" fill="#FFFFFF" d="M45.1,29v14H37V30c0-3.3-1.2-5.5-4.1-5.5c-2.2,0-3.6,1.5-4.2,3c-0.2,0.5-0.3,1.2-0.3,2V43
	h-8.1c0,0,0.1-22.1,0-24.3h8.1v3.4c0,0,0,0.1-0.1,0.1h0.1v-0.1c1.1-1.7,3-4,7.3-4C41.1,18.1,45.1,21.5,45.1,29z M11.9,6.9
	c-2.8,0-4.6,1.8-4.6,4.2c0,2.3,1.8,4.2,4.5,4.2h0.1c2.8,0,4.6-1.9,4.6-4.2C16.4,8.7,14.7,6.9,11.9,6.9z M7.8,43h8.1V18.6H7.8V43z"/>
</svg>
