<?xml version="1.0" encoding="utf-8"?>
<!-- Generator: Adobe Illustrator 17.1.0, SVG Export Plug-In . SVG Version: 6.00 Build 0)  -->
<!DOCTYPE svg PUBLIC "-//W3C//DTD SVG 1.1//EN" "http://www.w3.org/Graphics/SVG/1.1/DTD/svg11.dtd">
<svg version="1.1" id="Layer_1" xmlns="http://www.w3.org/2000/svg" xmlns:xlink="http://www.w3.org/1999/xlink" x="0px" y="0px"
	 viewBox="0 0 43.9 46" enable-background="new 0 0 43.9 46" xml:space="preserve">
<path fill="#FFFFFF" d="M41.9,11.6c-1.4,0.6-2.8,1-4.3,1.2c1.6-0.9,2.7-2.4,3.3-4.2c-1.5,0.9-3.1,1.5-4.8,1.8
	c-1.4-1.5-3.3-2.4-5.5-2.4c-4.2,0-7.5,3.4-7.5,7.5c0,0.6,0.1,1.2,0.2,1.7C17,17,11.4,14,7.7,9.5c-0.6,1.1-1,2.4-1,3.8
	c0,2.6,1.3,4.9,3.4,6.3c-1.2,0-2.4-0.4-3.4-0.9c0,0,0,0.1,0,0.1c0,3.6,2.6,6.7,6,7.4c-0.6,0.2-1.3,0.3-2,0.3c-0.5,0-1,0-1.4-0.1
	c1,3,3.7,5.2,7,5.2c-2.6,2-5.8,3.2-9.4,3.2c-0.6,0-1.2,0-1.8-0.1c3.3,2.1,7.3,3.4,11.5,3.4c13.9,0,21.4-11.5,21.4-21.4
	c0-0.3,0-0.7,0-1C39.6,14.5,40.9,13.1,41.9,11.6z"/>
</svg>
